<mxfile host="app.diagrams.net" modified="2023-08-24T08:52:25.451Z" agent="Mozilla/5.0 (Windows NT 10.0; Win64; x64) AppleWebKit/537.36 (KHTML, like Gecko) Chrome/116.0.0.0 Safari/537.36 Edg/116.0.1938.54" version="21.6.9" etag="WLkH0GIGFEIzg8bCuTvv" type="github">
  <diagram name="Trang-1" id="klLUkJ74PurdGsI_lNQq">
    <mxGraphModel>
      <root>
        <mxCell id="0" />
        <mxCell id="1" parent="0" />
      </root>
    </mxGraphModel>
  </diagram>
</mxfile>
